<svg width="247" height="286" viewBox="0 0 247 286" fill="none" xmlns="http://www.w3.org/2000/svg">
<path d="M125.796 284.367C124.183 285.367 122.141 285.367 120.527 284.367L2.36549 211.113C0.89476 210.201 1.52588e-05 208.594 1.52588e-05 206.863L3.05176e-05 19.5798C3.05176e-05 14.4016 6.90509 12.6383 9.38783 17.1824L45.6216 83.5009C46.4983 85.1055 48.181 86.1036 50.0094 86.1036H196.314C198.143 86.1036 199.825 85.1055 200.702 83.5009L236.936 17.1824C239.419 12.6382 246.324 14.4016 246.324 19.5797L246.324 206.863C246.324 208.594 245.429 210.201 243.958 211.113L125.796 284.367Z" fill="url(#paint0_linear_107_72)"/>
<defs>
<linearGradient id="paint0_linear_107_72" x1="123.162" y1="0" x2="123.162" y2="286" gradientUnits="userSpaceOnUse">
<stop stop-color="#D54310"/>
<stop offset="1" stop-color="#D27B5D"/>
</linearGradient>
</defs>
</svg>
